<svg width="149" height="149" viewBox="0 0 149 149" fill="none" xmlns="http://www.w3.org/2000/svg">
<path d="M39.9037 63.1754C41.5553 63.1754 42.909 63.1754 44.1106 63.2476V52.9882C44.1106 49.4209 44.4276 45.405 48.0924 45.405C49.1449 45.405 49.4429 44.4387 47.5661 44.5893C44.1866 44.7367 41.2542 44.6614 37.0473 44.6614C36.2959 44.6614 36.1469 43.6198 36.9744 43.6198C46.7387 43.6198 54.8513 43.0268 56.354 43.0268C61.1632 43.0268 58.9853 45.0348 58.9853 67.0407V89.875C58.9853 93.5897 59.1343 95.0047 60.4119 95.0047C61.1632 95.0047 62.3647 94.0384 62.3647 89.7997V84.5853C62.3533 84.5153 62.3574 84.4437 62.3766 84.3755C62.3959 84.3072 62.4299 84.2439 62.4764 84.1899C62.5228 84.1359 62.5805 84.0926 62.6455 84.0629C62.7105 84.0331 62.7813 84.0177 62.8529 84.0177C62.9246 84.0177 62.9953 84.0331 63.0604 84.0629C63.1254 84.0926 63.1831 84.1359 63.2295 84.1899C63.276 84.2439 63.31 84.3072 63.3293 84.3755C63.3485 84.4437 63.3526 84.5153 63.3412 84.5853V89.7903C63.3412 94.4745 62.2886 98.1171 54.5533 98.1924C47.1888 98.2645 41.1813 93.3576 44.9348 85.8497C45.087 85.6269 44.4846 85.1061 43.8855 86.3705C42.3828 92.385 38.7021 98.3461 29.9111 98.1924C23.6023 98.1171 19.3194 92.8367 19.3194 83.3209C19.3194 79.3803 19.0943 63.1754 39.9037 63.1754ZM44.1106 80.8674V64.148H39.9037C37.2724 64.148 35.3195 66.0807 35.3195 72.0293V87.8639C35.3195 92.6956 35.3956 94.258 37.1995 94.258C40.2777 94.2674 43.2102 88.824 44.1106 80.8674Z" fill="#1D1D1B"/>
<path d="M109.62 93.8031C109.696 93.7309 111.348 92.3191 112.553 91.0547C118.335 85.1814 122.317 79.7599 122.317 74.922C122.317 70.015 115.257 70.3852 115.257 75.7377C115.257 76.1832 114.731 76.4091 114.204 76.3338C112.099 76.0201 109.097 73.5823 109.246 68.8981C109.246 64.9575 112.702 62.2812 116.985 62.2812C122.016 62.2812 123.959 66.2972 124.194 70.5359C124.796 78.5645 119.312 85.5516 113.076 91.7983C111.123 93.8031 106.016 98.3398 103.162 98.3398H101.359C100.23 98.3398 100.458 97.4488 101.282 97.4488C101.809 97.4488 102.11 97.0754 102.11 96.4824C102.11 94.9137 100.23 91.4249 98.7304 89.0467C97.754 87.3368 96.4764 85.5516 95.1988 83.7664C92.5675 88.6012 88.9629 92.7646 86.6392 94.7725C84.5373 96.5546 81.9821 98.3398 79.8042 98.3398H78.0764C76.9509 98.3398 77.0999 97.4488 78.0003 97.4488C78.4505 97.4488 78.7516 97.0754 78.7516 96.4824C78.7516 94.9137 76.951 91.4249 75.3722 89.0467C73.4193 85.7744 70.5629 82.1444 68.6101 78.5646C66.8094 75.3675 65.833 72.6034 65.7569 70.2378C65.6047 65.5536 69.0602 62.9527 78.7548 62.9527C79.6583 62.9527 79.5062 63.919 78.7548 63.919C78.0796 63.919 77.4867 64.2892 77.4867 64.9575C77.5628 65.9238 79.0718 67.5616 82.8983 73.8804C85.5264 78.1912 89.0581 83.9202 89.0581 87.8576C89.0581 90.4586 87.3303 91.7983 85.9766 92.9873C85.1492 93.6556 85.7515 94.2423 86.3538 93.8031C88.3067 91.7229 91.9113 88.3031 94.6155 82.8754C93.639 81.4635 92.7387 79.9764 91.9113 78.5646C90.1835 75.3675 89.131 72.6034 89.131 70.2378C88.982 65.5536 92.4375 62.9527 102.129 62.9527C102.953 62.9527 102.804 63.919 102.129 63.919C101.454 63.919 100.702 64.1417 100.775 64.81C100.851 65.7764 102.43 67.4863 106.26 73.8051C108.815 78.119 112.419 83.8448 112.419 87.7823C112.419 90.2358 110.619 91.7983 109.265 92.9873C108.495 93.6556 109.097 94.2674 109.62 93.8031Z" fill="#1D1D1B"/>
<path d="M148.56 65.6728C149.267 73.005 149.175 80.4188 147.894 87.6662C146.509 94.8823 144.133 101.877 140.831 108.455C137.381 114.932 133.07 120.924 128.014 126.269C122.836 131.468 116.97 135.949 110.578 139.591C104.132 143.13 97.1707 145.618 90.0345 147.29C86.4141 147.864 82.8285 148.661 79.1543 148.746L76.4183 148.928C75.9618 148.95 75.5053 149 75.0488 149L73.6761 148.956L68.1948 148.771C60.9126 148.13 53.7539 146.502 46.9194 143.933C40.174 141.208 33.8262 137.605 28.0438 133.219C22.4066 128.687 17.4062 123.43 13.1755 117.588C9.09901 111.663 5.86372 105.211 3.56017 98.4151L1.76582 91.9583C1.6612 91.5222 1.60731 91.0798 1.52488 90.6405L1.07788 87.9925C0.317023 84.5037 0.27581 80.9208 0 77.3723C0 70.2472 0.811578 63.1315 2.74542 56.2762C4.7829 49.4686 7.73997 42.9645 11.5365 36.9402C15.4834 31.0387 20.2062 25.6831 25.5806 21.0145C31.0564 16.4955 37.1295 12.7368 43.6319 9.84214C50.172 7.04982 57.1021 5.3305 64.1179 4.35162C57.1212 5.4811 50.2545 7.34474 43.8284 10.2563C37.4474 13.2576 31.5098 17.1061 26.1797 21.6954C20.9906 26.4021 16.4575 31.7713 12.6999 37.6618C9.1146 43.6311 6.35914 50.0517 4.50806 56.75C2.76761 63.4735 2.13673 70.4041 2.2889 77.3033C2.63763 80.7388 2.74859 84.2057 3.557 87.5658L4.04521 90.104C4.13398 90.5245 4.19738 90.9511 4.30517 91.359L6.16926 97.5429C8.52214 104.014 11.7583 110.137 15.7877 115.74C19.9458 121.223 24.8208 126.135 30.2852 130.348C35.8565 134.384 41.9448 137.671 48.3904 140.121C54.8752 142.398 61.6437 143.79 68.5086 144.256L73.6539 144.319L74.941 144.338C75.3658 144.338 75.7938 144.269 76.2091 144.237L78.7707 144.011C82.204 143.867 85.5423 143.033 88.9154 142.443C95.5316 140.723 101.945 138.279 107.842 134.875C113.675 131.383 119.006 127.129 123.693 122.228C128.221 117.218 132.059 111.636 135.106 105.628C137.976 99.5619 140.003 93.1386 141.129 86.5336C142.147 79.9168 142.08 73.2089 141.303 66.589L141.284 66.4227C141.174 65.4695 141.45 64.5119 142.053 63.7605C142.656 63.0092 143.536 62.5256 144.499 62.4162C145.462 62.3067 146.43 62.5804 147.189 63.1771C147.948 63.7737 148.437 64.6443 148.547 65.5975C148.553 65.6223 148.558 65.6475 148.56 65.6728Z" fill="#1D1D1B"/>
<path d="M76.6181 0.737298C77.4442 1.15796 78.1243 1.81354 78.5709 2.61976C79.0294 3.50073 79.248 4.48478 79.205 5.47483C79.2158 6.46298 78.9643 7.43664 78.4758 8.29852C78.0093 9.08978 77.3089 9.7205 76.4691 10.1057C75.5073 10.5354 74.4579 10.7384 73.4035 10.6987L70.062 10.6673L70.2206 0L73.5778 0.0470614C74.632 0.0375296 75.6735 0.274001 76.6181 0.737298ZM76.6339 8.51814C77.3758 7.79862 77.7562 6.78105 77.7752 5.46541C77.7942 4.13828 77.4582 3.09665 76.7163 2.32798C75.9745 1.55931 74.9347 1.18595 73.5461 1.16399L71.5964 1.13575L71.4791 9.55663L73.4288 9.58487C74.8174 9.58801 75.8889 9.24289 76.6339 8.51814Z" fill="#1D1D1B"/>
<path d="M83.4119 0.702786L82.0867 11.2948L80.6886 11.1254L82.0138 0.533364L83.4119 0.702786Z" fill="#1D1D1B"/>
<path d="M85.7769 11.5991C85.3117 11.2681 84.9449 10.8195 84.7148 10.3002C84.5006 9.79119 84.4497 9.22931 84.569 8.6907L86.0368 9.00444C85.9723 9.4855 86.091 9.97309 86.3697 10.3724C86.7224 10.8307 87.2403 11.1364 87.8153 11.2257C88.3661 11.3808 88.9553 11.3294 89.4702 11.0814C89.6884 10.97 89.8783 10.811 90.0254 10.6165C90.1726 10.4219 90.2733 10.1969 90.3198 9.95822C90.4142 9.60803 90.3735 9.23559 90.2057 8.91346C90.0357 8.61092 89.7942 8.35363 89.5019 8.16361C89.0996 7.90189 88.6825 7.66306 88.2528 7.44827C87.714 7.18462 87.1958 6.88154 86.7026 6.54155C86.3251 6.26641 86.0249 5.90028 85.8307 5.47796C85.6133 4.95512 85.5787 4.37534 85.7325 3.83081C85.8427 3.29384 86.1133 2.80199 86.5092 2.41896C86.9143 2.03885 87.4199 1.77997 87.9675 1.67225C88.5973 1.55124 89.2462 1.56622 89.8696 1.71618C90.7455 1.86769 91.5428 2.3104 92.13 2.97115C92.3836 3.27008 92.571 3.61829 92.6802 3.99333C92.7894 4.36837 92.818 4.7619 92.764 5.14853L91.2518 4.81596C91.2837 4.38144 91.1413 3.95198 90.8556 3.6206C90.5038 3.20686 90.0151 2.93003 89.4765 2.83938C88.9754 2.70829 88.4438 2.75491 87.9738 2.97115C87.7586 3.08053 87.5723 3.23823 87.4297 3.43163C87.2872 3.62503 87.1923 3.84876 87.1527 4.08494C87.0619 4.41983 87.1027 4.77632 87.2669 5.08265C87.4339 5.37161 87.6661 5.61855 87.9453 5.80426C88.237 5.99878 88.6491 6.23722 89.1849 6.52587C89.724 6.80381 90.243 7.1183 90.7383 7.4671C91.1173 7.74831 91.4201 8.11802 91.6196 8.54324C91.8417 9.07038 91.8775 9.65632 91.721 10.2061C91.6075 10.7125 91.3552 11.1782 90.9919 11.552C90.5951 11.9547 90.0938 12.2413 89.5431 12.3803C88.8928 12.5424 88.212 12.5424 87.5617 12.3803C86.9172 12.249 86.3086 11.9826 85.7769 11.5991Z" fill="#1D1D1B"/>
<path d="M97.326 5.07323L96.1055 8.43343L99.8051 9.75115L99.4088 10.8304L95.7409 9.51271L94.4728 12.9639L98.5941 14.4385L98.2105 15.5178L92.7482 13.5725L96.4066 3.53275L101.869 5.47796L101.473 6.55724L97.326 5.07323Z" fill="#1D1D1B"/>
<path d="M107.404 20.0859L106.158 19.4364L105.156 9.30564L101.149 16.8355L99.9034 16.186L104.935 6.73294L106.203 7.36043L107.214 17.4787L111.212 9.97391L112.457 10.6265L107.404 20.0859ZM108.105 6.08349C108.286 6.02447 108.478 6.00375 108.668 6.02266C108.858 6.04158 109.042 6.09971 109.208 6.1933C109.364 6.26527 109.501 6.37277 109.607 6.50704C109.723 6.66137 109.829 6.82275 109.924 6.99021C109.991 7.12467 110.069 7.2537 110.156 7.37611C110.231 7.48011 110.33 7.56505 110.444 7.62397C110.59 7.70444 110.762 7.72473 110.923 7.68044C111.1 7.6282 111.253 7.51744 111.357 7.3667L112.068 7.73692C111.836 8.11223 111.481 8.39783 111.063 8.54638C110.879 8.60418 110.686 8.62399 110.494 8.60456C110.303 8.58512 110.118 8.52687 109.95 8.43343C109.792 8.35768 109.652 8.25092 109.538 8.11969C109.416 7.96517 109.31 7.79912 109.221 7.62397C109.122 7.45769 109.043 7.31023 108.98 7.23807C108.91 7.13995 108.816 7.06111 108.707 7.00903C108.637 6.96915 108.559 6.94385 108.478 6.93468C108.397 6.92552 108.316 6.93266 108.238 6.9557C108.058 7.01657 107.904 7.13742 107.804 7.29768L107.078 6.91805C107.317 6.5346 107.678 6.24094 108.105 6.08349Z" fill="#1D1D1B"/>
<path d="M111.164 21.9213C110.794 21.0634 110.67 20.1211 110.806 19.198C110.961 18.2284 111.359 17.3127 111.963 16.5341C112.567 15.7555 113.358 15.1386 114.265 14.7397C115.129 14.3724 116.078 14.2466 117.01 14.3757C117.959 14.5198 118.856 14.8987 119.618 15.4774C120.38 16.056 120.983 16.8155 121.369 17.6857C121.741 18.5388 121.868 19.4766 121.737 20.3965C121.571 21.3679 121.167 22.2839 120.558 23.0637C119.95 23.8435 119.157 24.463 118.249 24.8673C117.391 25.2361 116.447 25.3663 115.52 25.2438C114.566 25.1075 113.665 24.7256 112.908 24.1363C112.138 23.5647 111.536 22.8 111.164 21.9213ZM115.602 23.9763C116.299 24.0652 117.007 23.9564 117.644 23.6625C118.352 23.3273 118.966 22.8253 119.432 22.2005C119.925 21.5935 120.258 20.8742 120.399 20.1078C120.523 19.4267 120.448 18.7248 120.183 18.0842C119.897 17.4364 119.45 16.8709 118.884 16.4402C118.317 16.0096 117.65 15.7279 116.943 15.6213C116.25 15.5358 115.546 15.6445 114.911 15.935C114.211 16.2839 113.6 16.7848 113.123 17.4003C112.646 18.0159 112.315 18.7301 112.156 19.4898C112.033 20.174 112.107 20.8789 112.372 21.5228C112.652 22.1701 113.094 22.7362 113.657 23.1676C114.219 23.5991 114.883 23.8817 115.587 23.9888L115.602 23.9763Z" fill="#1D1D1B"/>
<path d="M137.952 35.0797L127.491 39.1332L126.54 37.8971L131.891 30.681L123.426 33.8812L122.46 32.667L129.18 23.7818L130.097 24.9583L124.273 32.3313L133.108 28.8519L134.059 30.1068L128.353 37.5457L137.02 33.9031L137.952 35.0797Z" fill="#1D1D1B"/>
<path d="M138.888 39.5129L135.686 41.1789L137.518 44.63L136.491 45.1665L134.659 41.7154L131.384 43.4409L133.435 47.2874L132.411 47.8239L129.704 42.7444L139.255 37.7559L141.963 42.8135L140.936 43.35L138.888 39.5129Z" fill="#1D1D1B"/>
<path d="M140.191 53.6815C140.061 54.0734 139.845 54.4316 139.557 54.7294C139.268 55.0386 138.908 55.2743 138.507 55.4165C138.021 55.6029 137.49 55.6454 136.979 55.5389C136.449 55.4198 135.964 55.1531 135.581 54.7702C135.129 54.3132 134.784 53.7624 134.573 53.1576L133.172 49.424L143.294 45.7062L144.642 49.2923C144.885 49.8827 144.993 50.5191 144.959 51.1559C144.928 51.6671 144.749 52.1587 144.442 52.5709C144.141 52.9555 143.735 53.2463 143.272 53.4086C142.742 53.6289 142.15 53.6523 141.605 53.4745C141.081 53.2934 140.62 52.9666 140.279 52.5332C140.35 52.9172 140.319 53.3127 140.191 53.6815ZM136.659 53.9953C136.886 54.1192 137.139 54.1902 137.399 54.2027C137.658 54.2152 137.917 54.1689 138.155 54.0674C138.41 53.9864 138.643 53.8483 138.836 53.6639C139.028 53.4794 139.175 53.2536 139.265 53.0039C139.445 52.4386 139.413 51.8278 139.173 51.2845L138.323 49.0162L134.757 50.3433L135.622 52.6556C135.797 53.2085 136.165 53.6821 136.659 53.9921V53.9953ZM139.411 48.6209L140.235 50.8171C140.393 51.3333 140.729 51.7777 141.186 52.072C141.403 52.174 141.638 52.2318 141.877 52.2422C142.117 52.2526 142.356 52.2153 142.581 52.1325C142.805 52.0497 143.011 51.9231 143.185 51.7602C143.36 51.5973 143.499 51.4014 143.595 51.1841C143.757 50.6523 143.719 50.0807 143.488 49.5746L142.673 47.4067L139.411 48.6209Z" fill="#1D1D1B"/>
</svg>
